<mxfile host="65bd71144e">
    <diagram id="JvkJbNiJwDPeaZSi8WMl" name="第 1 页">
        <mxGraphModel dx="614" dy="477" grid="1" gridSize="10" guides="1" tooltips="1" connect="1" arrows="1" fold="1" page="1" pageScale="1" pageWidth="827" pageHeight="1169" math="0" shadow="0">
            <root>
                <mxCell id="0"/>
                <mxCell id="1" parent="0"/>
                <mxCell id="2" value="Client" style="swimlane;whiteSpace=wrap;html=1;" vertex="1" parent="1">
                    <mxGeometry x="30" y="140" width="290" height="610" as="geometry"/>
                </mxCell>
                <mxCell id="31" value="" style="rounded=1;whiteSpace=wrap;html=1;" vertex="1" parent="2">
                    <mxGeometry x="60" y="380" width="170" height="40" as="geometry"/>
                </mxCell>
                <mxCell id="30" value="" style="rounded=1;whiteSpace=wrap;html=1;" vertex="1" parent="2">
                    <mxGeometry x="60" y="260" width="170" height="40" as="geometry"/>
                </mxCell>
                <mxCell id="29" value="" style="rounded=1;whiteSpace=wrap;html=1;" vertex="1" parent="2">
                    <mxGeometry x="60" y="200" width="170" height="40" as="geometry"/>
                </mxCell>
                <mxCell id="26" value="" style="rounded=1;whiteSpace=wrap;html=1;" vertex="1" parent="2">
                    <mxGeometry x="60" y="500" width="170" height="50" as="geometry"/>
                </mxCell>
                <mxCell id="7" value="Choix de la page Choix context&amp;nbsp;&amp;nbsp;" style="text;html=1;strokeColor=none;fillColor=none;align=center;verticalAlign=middle;whiteSpace=wrap;rounded=0;" vertex="1" parent="2">
                    <mxGeometry x="68.75" y="205" width="152.5" height="30" as="geometry"/>
                </mxCell>
                <mxCell id="13" value="Choix du contexte" style="text;html=1;strokeColor=none;fillColor=none;align=center;verticalAlign=middle;whiteSpace=wrap;rounded=0;" vertex="1" parent="2">
                    <mxGeometry x="68.75" y="265" width="152.5" height="30" as="geometry"/>
                </mxCell>
                <mxCell id="19" value="Choix playlist" style="text;html=1;strokeColor=none;fillColor=none;align=center;verticalAlign=middle;whiteSpace=wrap;rounded=0;" vertex="1" parent="2">
                    <mxGeometry x="68.75" y="385" width="152.5" height="30" as="geometry"/>
                </mxCell>
                <mxCell id="20" value="" style="endArrow=classic;html=1;exitX=0.5;exitY=1;exitDx=0;exitDy=0;" edge="1" parent="2">
                    <mxGeometry width="50" height="50" relative="1" as="geometry">
                        <mxPoint x="145" y="420" as="sourcePoint"/>
                        <mxPoint x="350" y="460" as="targetPoint"/>
                        <Array as="points">
                            <mxPoint x="145" y="460"/>
                        </Array>
                    </mxGeometry>
                </mxCell>
                <mxCell id="25" value="Confirmation de la &lt;br&gt;playlist choisi" style="text;html=1;strokeColor=none;fillColor=none;align=center;verticalAlign=middle;whiteSpace=wrap;rounded=0;" vertex="1" parent="2">
                    <mxGeometry x="68.75" y="510" width="152.5" height="30" as="geometry"/>
                </mxCell>
                <mxCell id="27" value="" style="rounded=1;whiteSpace=wrap;html=1;" vertex="1" parent="2">
                    <mxGeometry x="60" y="120" width="170" height="40" as="geometry"/>
                </mxCell>
                <mxCell id="28" value="Log in" style="text;html=1;strokeColor=none;fillColor=none;align=center;verticalAlign=middle;whiteSpace=wrap;rounded=0;" vertex="1" parent="2">
                    <mxGeometry x="115" y="125" width="60" height="30" as="geometry"/>
                </mxCell>
                <mxCell id="36" value="" style="ellipse;html=1;shape=endState;fillColor=strokeColor;" vertex="1" parent="2">
                    <mxGeometry x="130" y="570" width="30" height="30" as="geometry"/>
                </mxCell>
                <mxCell id="38" value="" style="endArrow=classic;html=1;exitX=0.5;exitY=1;exitDx=0;exitDy=0;entryX=0.5;entryY=0;entryDx=0;entryDy=0;" edge="1" parent="2" source="26" target="36">
                    <mxGeometry width="50" height="50" relative="1" as="geometry">
                        <mxPoint x="170" y="400" as="sourcePoint"/>
                        <mxPoint x="220" y="350" as="targetPoint"/>
                    </mxGeometry>
                </mxCell>
                <mxCell id="3" value="Fournisseur" style="swimlane;whiteSpace=wrap;html=1;" vertex="1" parent="1">
                    <mxGeometry x="320" y="140" width="290" height="610" as="geometry"/>
                </mxCell>
                <mxCell id="35" value="" style="rounded=1;whiteSpace=wrap;html=1;" vertex="1" parent="3">
                    <mxGeometry x="60" y="440" width="170" height="40" as="geometry"/>
                </mxCell>
                <mxCell id="34" value="" style="rounded=1;whiteSpace=wrap;html=1;" vertex="1" parent="3">
                    <mxGeometry x="60" y="320" width="180" height="40" as="geometry"/>
                </mxCell>
                <mxCell id="32" value="" style="rounded=1;whiteSpace=wrap;html=1;" vertex="1" parent="3">
                    <mxGeometry x="60" y="200" width="170" height="40" as="geometry"/>
                </mxCell>
                <mxCell id="10" value="Afficher liste de choix pour idendification du contexte" style="text;html=1;strokeColor=none;fillColor=none;align=center;verticalAlign=middle;whiteSpace=wrap;rounded=0;" vertex="1" parent="3">
                    <mxGeometry x="45" y="205" width="200" height="30" as="geometry"/>
                </mxCell>
                <mxCell id="15" value="Afficher liste de choix des &lt;br&gt;playlists en fonction du contexte" style="text;html=1;strokeColor=none;fillColor=none;align=center;verticalAlign=middle;whiteSpace=wrap;rounded=0;" vertex="1" parent="3">
                    <mxGeometry x="50" y="325" width="200" height="30" as="geometry"/>
                </mxCell>
                <mxCell id="22" value="Demande de confirmation" style="text;html=1;strokeColor=none;fillColor=none;align=center;verticalAlign=middle;whiteSpace=wrap;rounded=0;" vertex="1" parent="3">
                    <mxGeometry x="44" y="445" width="200" height="30" as="geometry"/>
                </mxCell>
                <mxCell id="23" value="" style="endArrow=classic;html=1;exitX=0.5;exitY=1;exitDx=0;exitDy=0;" edge="1" parent="3">
                    <mxGeometry width="50" height="50" relative="1" as="geometry">
                        <mxPoint x="155" y="480" as="sourcePoint"/>
                        <mxPoint x="-60" y="525" as="targetPoint"/>
                        <Array as="points">
                            <mxPoint x="155" y="525"/>
                        </Array>
                    </mxGeometry>
                </mxCell>
                <mxCell id="5" value="" style="endArrow=classic;html=1;exitX=0.5;exitY=1;exitDx=0;exitDy=0;" edge="1" parent="1">
                    <mxGeometry width="50" height="50" relative="1" as="geometry">
                        <mxPoint x="175" y="300" as="sourcePoint"/>
                        <mxPoint x="175" y="340" as="targetPoint"/>
                    </mxGeometry>
                </mxCell>
                <mxCell id="8" value="" style="endArrow=classic;html=1;exitX=1;exitY=0.5;exitDx=0;exitDy=0;" edge="1" parent="1">
                    <mxGeometry width="50" height="50" relative="1" as="geometry">
                        <mxPoint x="260" y="360" as="sourcePoint"/>
                        <mxPoint x="380" y="360" as="targetPoint"/>
                    </mxGeometry>
                </mxCell>
                <mxCell id="11" value="" style="endArrow=classic;html=1;exitX=0.5;exitY=1;exitDx=0;exitDy=0;" edge="1" parent="1" source="32">
                    <mxGeometry width="50" height="50" relative="1" as="geometry">
                        <mxPoint x="475" y="380" as="sourcePoint"/>
                        <mxPoint x="260" y="420" as="targetPoint"/>
                        <Array as="points">
                            <mxPoint x="465" y="420"/>
                        </Array>
                    </mxGeometry>
                </mxCell>
                <mxCell id="14" value="" style="endArrow=classic;html=1;exitX=0.5;exitY=1;exitDx=0;exitDy=0;" edge="1" parent="1">
                    <mxGeometry width="50" height="50" relative="1" as="geometry">
                        <mxPoint x="175" y="440" as="sourcePoint"/>
                        <mxPoint x="380" y="480" as="targetPoint"/>
                        <Array as="points">
                            <mxPoint x="175" y="480"/>
                        </Array>
                    </mxGeometry>
                </mxCell>
                <mxCell id="17" value="" style="endArrow=classic;html=1;exitX=0.5;exitY=1;exitDx=0;exitDy=0;" edge="1" parent="1">
                    <mxGeometry width="50" height="50" relative="1" as="geometry">
                        <mxPoint x="475" y="500" as="sourcePoint"/>
                        <mxPoint x="260" y="540" as="targetPoint"/>
                        <Array as="points">
                            <mxPoint x="475" y="540"/>
                        </Array>
                    </mxGeometry>
                </mxCell>
            </root>
        </mxGraphModel>
    </diagram>
</mxfile>